<?xml version="1.0" encoding="UTF-8" standalone="no"?>
<!DOCTYPE svg PUBLIC "-//W3C//DTD SVG 1.1//EN"
 "http://www.w3.org/Graphics/SVG/1.1/DTD/svg11.dtd">
<!-- Generated by graphviz version 2.36.0 (20140111.2315)
 -->
<!-- Title: avltree Pages: 1 -->
<svg width="278pt" height="302pt"
 viewBox="0.00 0.00 278.00 302.00" xmlns="http://www.w3.org/2000/svg" xmlns:xlink="http://www.w3.org/1999/xlink">
<g id="graph0" class="graph" transform="scale(1 1) rotate(0) translate(4 298)">
<title>avltree</title>
<polygon fill="white" stroke="none" points="-4,4 -4,-298 274,-298 274,4 -4,4"/>
<!-- 6 -->
<g id="node1" class="node"><title>6</title>
<ellipse fill="none" stroke="black" cx="140" cy="-276" rx="27" ry="18"/>
<text text-anchor="middle" x="140" y="-271.8" font-family="Times,serif" font-size="14.00">6</text>
</g>
<!-- 2 -->
<g id="node2" class="node"><title>2</title>
<ellipse fill="none" stroke="black" cx="99" cy="-190" rx="27" ry="18"/>
<text text-anchor="middle" x="99" y="-185.8" font-family="Times,serif" font-size="14.00">2</text>
</g>
<!-- 6&#45;&gt;2 -->
<g id="edge1" class="edge"><title>6&#45;&gt;2</title>
<path fill="none" stroke="black" d="M131.9,-258.404C126.078,-246.477 118.12,-230.172 111.488,-216.586"/>
<polygon fill="black" stroke="black" points="114.476,-214.727 106.944,-207.275 108.185,-217.797 114.476,-214.727"/>
<text text-anchor="middle" x="125.5" y="-228.8" font-family="Times,serif" font-size="14.00">3</text>
</g>
<!-- 8 -->
<g id="node3" class="node"><title>8</title>
<ellipse fill="none" stroke="black" cx="171" cy="-190" rx="27" ry="18"/>
<text text-anchor="middle" x="171" y="-185.8" font-family="Times,serif" font-size="14.00">8</text>
</g>
<!-- 6&#45;&gt;8 -->
<g id="edge2" class="edge"><title>6&#45;&gt;8</title>
<path fill="none" stroke="black" d="M146.125,-258.404C150.455,-246.669 156.35,-230.696 161.315,-217.244"/>
<polygon fill="black" stroke="black" points="164.709,-218.155 164.888,-207.561 158.142,-215.731 164.709,-218.155"/>
<text text-anchor="middle" x="160.5" y="-228.8" font-family="Times,serif" font-size="14.00">2</text>
</g>
<!-- 1 -->
<g id="node4" class="node"><title>1</title>
<ellipse fill="none" stroke="black" cx="27" cy="-104" rx="27" ry="18"/>
<text text-anchor="middle" x="27" y="-99.8" font-family="Times,serif" font-size="14.00">1</text>
</g>
<!-- 2&#45;&gt;1 -->
<g id="edge3" class="edge"><title>2&#45;&gt;1</title>
<path fill="none" stroke="black" d="M86.1278,-173.982C75.0702,-161.082 58.9641,-142.291 46.353,-127.579"/>
<polygon fill="black" stroke="black" points="48.9261,-125.202 39.7607,-119.888 43.6113,-129.758 48.9261,-125.202"/>
<text text-anchor="middle" x="71.5" y="-142.8" font-family="Times,serif" font-size="14.00">2</text>
</g>
<!-- 4 -->
<g id="node5" class="node"><title>4</title>
<ellipse fill="none" stroke="black" cx="99" cy="-104" rx="27" ry="18"/>
<text text-anchor="middle" x="99" y="-99.8" font-family="Times,serif" font-size="14.00">4</text>
</g>
<!-- 2&#45;&gt;4 -->
<g id="edge4" class="edge"><title>2&#45;&gt;4</title>
<path fill="none" stroke="black" d="M99,-171.595C99,-160.257 99,-145.227 99,-132.315"/>
<polygon fill="black" stroke="black" points="102.5,-132.095 99,-122.095 95.5001,-132.095 102.5,-132.095"/>
<text text-anchor="middle" x="102.5" y="-142.8" font-family="Times,serif" font-size="14.00">2</text>
</g>
<!-- 7 -->
<g id="node9" class="node"><title>7</title>
<ellipse fill="none" stroke="black" cx="171" cy="-104" rx="27" ry="18"/>
<text text-anchor="middle" x="171" y="-99.8" font-family="Times,serif" font-size="14.00">7</text>
</g>
<!-- 8&#45;&gt;7 -->
<g id="edge8" class="edge"><title>8&#45;&gt;7</title>
<path fill="none" stroke="black" d="M171,-171.595C171,-160.257 171,-145.227 171,-132.315"/>
<polygon fill="black" stroke="black" points="174.5,-132.095 171,-122.095 167.5,-132.095 174.5,-132.095"/>
<text text-anchor="middle" x="174.5" y="-142.8" font-family="Times,serif" font-size="14.00">1</text>
</g>
<!-- 9 -->
<g id="node10" class="node"><title>9</title>
<ellipse fill="none" stroke="black" cx="243" cy="-104" rx="27" ry="18"/>
<text text-anchor="middle" x="243" y="-99.8" font-family="Times,serif" font-size="14.00">9</text>
</g>
<!-- 8&#45;&gt;9 -->
<g id="edge9" class="edge"><title>8&#45;&gt;9</title>
<path fill="none" stroke="black" d="M183.872,-173.982C194.93,-161.082 211.036,-142.291 223.647,-127.579"/>
<polygon fill="black" stroke="black" points="226.389,-129.758 230.239,-119.888 221.074,-125.202 226.389,-129.758"/>
<text text-anchor="middle" x="214.5" y="-142.8" font-family="Times,serif" font-size="14.00">1</text>
</g>
<!-- 0 -->
<g id="node6" class="node"><title>0</title>
<ellipse fill="none" stroke="black" cx="27" cy="-18" rx="27" ry="18"/>
<text text-anchor="middle" x="27" y="-13.8" font-family="Times,serif" font-size="14.00">0</text>
</g>
<!-- 1&#45;&gt;0 -->
<g id="edge5" class="edge"><title>1&#45;&gt;0</title>
<path fill="none" stroke="black" d="M27,-85.5951C27,-74.2572 27,-59.2271 27,-46.3153"/>
<polygon fill="black" stroke="black" points="30.5001,-46.0951 27,-36.0952 23.5001,-46.0952 30.5001,-46.0951"/>
<text text-anchor="middle" x="30.5" y="-56.8" font-family="Times,serif" font-size="14.00">1</text>
</g>
<!-- 3 -->
<g id="node7" class="node"><title>3</title>
<ellipse fill="none" stroke="black" cx="99" cy="-18" rx="27" ry="18"/>
<text text-anchor="middle" x="99" y="-13.8" font-family="Times,serif" font-size="14.00">3</text>
</g>
<!-- 4&#45;&gt;3 -->
<g id="edge6" class="edge"><title>4&#45;&gt;3</title>
<path fill="none" stroke="black" d="M99,-85.5951C99,-74.2572 99,-59.2271 99,-46.3153"/>
<polygon fill="black" stroke="black" points="102.5,-46.0951 99,-36.0952 95.5001,-46.0952 102.5,-46.0951"/>
<text text-anchor="middle" x="102.5" y="-56.8" font-family="Times,serif" font-size="14.00">1</text>
</g>
<!-- 5 -->
<g id="node8" class="node"><title>5</title>
<ellipse fill="none" stroke="black" cx="171" cy="-18" rx="27" ry="18"/>
<text text-anchor="middle" x="171" y="-13.8" font-family="Times,serif" font-size="14.00">5</text>
</g>
<!-- 4&#45;&gt;5 -->
<g id="edge7" class="edge"><title>4&#45;&gt;5</title>
<path fill="none" stroke="black" d="M111.872,-87.9825C122.93,-75.0819 139.036,-56.2914 151.647,-41.5785"/>
<polygon fill="black" stroke="black" points="154.389,-43.7579 158.239,-33.8875 149.074,-39.2023 154.389,-43.7579"/>
<text text-anchor="middle" x="143.5" y="-56.8" font-family="Times,serif" font-size="14.00">1</text>
</g>
</g>
</svg>
